# xmcd
#
# Track frame offsets: 
#        150
#        13935
#        26190
#        40855
#        52207
#        63400
#        74115
#        87172
#        101040
#        106012
#        118717
#        132540
#        142882
#        153992
#        168205
#        182000
#        193707
#        207130
#        219227
#        230392
#        243965
#        256152
#        268370
#        280557
#        293190
#
# Disc length: 4099 seconds
#
# Revision: 3
# Processed by: cddbd v1.5.2PL0 Copyright (c) Steve Scherf et al.
# Submitted via: ExactAudioCopyFreeDBPlugin 1.0
#
DISCID=74100119
DTITLE=Various  - Sun Records - The Blues Years 1950-1958 [CD3]
DYEAR=1996
DGENRE=Blues
TTITLE0=Willie Nix - Midnight Showers Of Rain
TTITLE1=Willie Nix - Prison Bound Blues
TTITLE2=Willie Nix - Riding In The Moonlight
TTITLE3=Willie Nix - Let's Take A Little Walk
TTITLE4=James Banister - Ain't Gonna Tell You No Lie (Sweet Little Wom
TTITLE4=an)
TTITLE5=Dennis Binder - Love You Love You Baby
TTITLE6=Woodrow Adams - Last Time (Take 1)
TTITLE7=Woodrow Adams - Train Is Comin'
TTITLE8=Woodrow Adams - If You Don't Want Me
TTITLE9=Woodrow Adams - Train Time
TTITLE10=Walter Bradford - Reward For My Baby
TTITLE11=Walter Bradford - Love For My Baby
TTITLE12=L.C. Hubert - Lucy Done Moved
TTITLE13=Walter Horton - West Winds Are Blowing
TTITLE14=Walter Horton - In The Mood
TTITLE15=Walter Horton - Little Walter's Boogie (Take 2)
TTITLE16=Walter Horton - We All Gotta Go Sometime (Take 2)
TTITLE17=Raymond Hill - Long Gone Raymond
TTITLE18=Raymond Hill - My Baby Left Me
TTITLE19=Raymond Hill - Somebody's Been Carryin' Your Rollin' On
TTITLE20=Raymond Hill - I'm Back Pretty Baby
TTITLE21=Willie Nix - Seems Like A Million Years
TTITLE22=Willie Nix - Bakershop Boogie
TTITLE23=Walter 'Tang' Smith - Hi-Tone Mama
TTITLE24=Walter 'Tang' Smith - Every Monday Morning
EXTD=YEAR: 1996
EXTT0=
EXTT1=
EXTT2=
EXTT3=
EXTT4=
EXTT5=
EXTT6=
EXTT7=
EXTT8=
EXTT9=
EXTT10=
EXTT11=
EXTT12=
EXTT13=
EXTT14=
EXTT15=
EXTT16=
EXTT17=
EXTT18=
EXTT19=
EXTT20=
EXTT21=
EXTT22=
EXTT23=
EXTT24=
PLAYORDER=
